<?xml version="1.0" standalone="no"?>
<!DOCTYPE svg PUBLIC "-//W3C//DTD SVG 20010904//EN"
 "http://www.w3.org/TR/2001/REC-SVG-20010904/DTD/svg10.dtd">
<svg version="1.0" xmlns="http://www.w3.org/2000/svg"
 width="500.000000pt" height="500.000000pt" viewBox="0 0 500.000000 500.000000"
 preserveAspectRatio="xMidYMid meet">

<g transform="translate(0.000000,500.000000) scale(0.100000,-0.100000)"
fill="#000000" stroke="none">
<path d="M0 2500 l0 -2500 2500 0 2500 0 0 2500 0 2500 -2500 0 -2500 0 0
-2500z m2152 1007 c124 -61 211 -172 238 -304 7 -34 10 -158 8 -340 -3 -270
-5 -291 -26 -343 -44 -111 -141 -207 -252 -253 -53 -21 -68 -22 -447 -25
l-393 -3 0 565 0 564 52 -13 c62 -17 114 -57 142 -111 20 -37 21 -60 26 -387
l5 -349 29 -25 29 -24 211 3 c195 3 214 5 252 25 53 28 99 74 127 127 21 39
22 52 22 281 0 229 -1 242 -22 281 -28 53 -74 99 -127 127 -39 21 -57 22 -311
27 l-270 5 -47 28 c-50 29 -89 83 -106 150 l-11 38 398 -3 397 -3 76 -38z
m570 -374 l3 -418 28 -57 c35 -72 97 -134 167 -167 46 -22 69 -26 140 -26 71
0 94 4 141 26 72 34 134 96 168 168 l26 56 5 340 c5 312 7 343 24 370 43 68
93 104 164 120 l32 7 0 -414 c0 -252 -4 -438 -11 -474 -36 -199 -206 -371
-407 -413 -68 -14 -216 -14 -284 0 -173 36 -328 175 -390 349 -21 62 -23 81
-26 401 -2 218 0 351 7 376 13 48 47 99 82 125 25 19 93 47 116 48 9 0 13
-101 15 -417z m-771 -225 l99 -173 -202 -3 c-110 -1 -203 -1 -205 1 -2 2 42
84 98 181 56 97 104 175 107 172 3 -3 49 -83 103 -178z"/>
</g>
</svg>
